# xmcd CD database file
#
# Track frame offsets:
#	150
#	14344
#	31691
#	61910
#	84996
#	104440
#	120999
#	143947
#	155762
#	168682
#	184407
#	205370
#	219066
#	233150
#
# Disc length: 3261 seconds
#
# Revision: 0
# Processed by: cddbd v1.5.2PL0 Copyright (c) Steve Scherf et al.
# Submitted via: CDex 1.51
#
DISCID=ba0cbb0e
DTITLE=Various Artist - Blues Legend collection
DYEAR=2006
DGENRE=Blues
TTITLE0=John Lee Hooker_Boogie Chillen
TTITLE1=Jimmy Witherspoon_Gee Baby Ain't I Been good
TTITLE2=Brownie Mcghee and Sonny Terry_Everbody's Blue
TTITLE3=B.B.King_Swet little Angel
TTITLE4=Albert King_Cadilac assembly line
TTITLE5=Johnny Winter_Kind Hearted Woman
TTITLE6=Muddy Waters_Mannish boy
TTITLE7=Jonior Wells_I got my mojo working
TTITLE8=Mississippi john Hurt_Nobody's dirty business 
TTITLE9=Nina Simone_I want a little sugar in my bowl
TTITLE10=Mike Bloomfield_Cherry red
TTITLE11=Lightning Hopkins_Mojo Hand
TTITLE12=Big Joe Williams_Nobody knowns you when yore down and out
TTITLE13=John Mayall_Lost and Gone
EXTD=YEAR: 2006
EXTT0=
EXTT1=
EXTT2=
EXTT3=
EXTT4=
EXTT5=
EXTT6=
EXTT7=
EXTT8=
EXTT9=
EXTT10=
EXTT11=
EXTT12=
EXTT13=
PLAYORDER=
